<mxfile host="app.diagrams.net" modified="2021-04-13T14:27:15.920Z" agent="5.0 (Windows)" etag="UR-XKs0YrG4qTX8QR6x9" version="14.5.10" type="github">
  <diagram id="PBF1mG9diSp13XfL-FuO" name="Page-1">
    <mxGraphModel dx="2062" dy="791" grid="1" gridSize="10" guides="1" tooltips="1" connect="1" arrows="1" fold="1" page="1" pageScale="1" pageWidth="850" pageHeight="1100" math="0" shadow="0">
      <root>
        <mxCell id="0" />
        <mxCell id="1" parent="0" />
        <mxCell id="gQPX-J7JwRZ6O7c9ipDz-1" value="" style="rounded=0;whiteSpace=wrap;html=1;" vertex="1" parent="1">
          <mxGeometry x="200" y="170" width="120" height="60" as="geometry" />
        </mxCell>
        <mxCell id="gQPX-J7JwRZ6O7c9ipDz-2" value="hola mundo" style="text;html=1;strokeColor=none;fillColor=none;align=center;verticalAlign=middle;whiteSpace=wrap;rounded=0;" vertex="1" parent="1">
          <mxGeometry x="370" y="310" width="90" height="20" as="geometry" />
        </mxCell>
      </root>
    </mxGraphModel>
  </diagram>
</mxfile>
